<?xml version="1.0" standalone="no"?>
<!DOCTYPE svg PUBLIC "-//W3C//DTD SVG 20010904//EN"
 "http://www.w3.org/TR/2001/REC-SVG-20010904/DTD/svg10.dtd">
<svg version="1.0" xmlns="http://www.w3.org/2000/svg"
 width="673.000000pt" height="673.000000pt" viewBox="0 0 673.000000 673.000000"
 preserveAspectRatio="xMidYMid meet">
<metadata>
Created by potrace 1.11, written by Peter Selinger 2001-2013
</metadata>
<g transform="translate(0.000000,673.000000) scale(0.100000,-0.100000)"
fill="#000000" stroke="none">
<path d="M3205 6633 c-588 -31 -1171 -223 -1652 -544 -348 -231 -608 -481
-855 -819 -664 -912 -809 -2123 -382 -3174 184 -452 501 -901 857 -1213 244
-215 465 -362 752 -503 463 -227 929 -335 1450 -334 254 0 410 15 655 64 789
158 1479 593 1973 1246 711 938 865 2196 402 3279 -207 484 -554 942 -960
1268 -473 379 -999 610 -1590 696 -234 35 -439 45 -650 34z m558 -1337 c241
-49 472 -139 644 -252 321 -208 548 -463 704 -789 176 -370 225 -780 143
-1200 -29 -147 -128 -426 -144 -408 -5 4 -72 150 -150 323 -197 438 -416 916
-628 1375 -99 215 -183 400 -186 412 -21 67 -121 99 -286 90 -113 -6 -193 -26
-232 -56 -76 -60 -411 -847 -649 -1521 -12 -36 -24 -67 -25 -69 -2 -2 -75 62
-163 142 -184 168 -224 189 -351 191 l-75 1 -409 -188 c-226 -103 -413 -184
-417 -180 -4 5 -13 69 -19 144 -27 328 48 693 206 999 258 500 729 860 1279
979 163 35 220 40 430 36 166 -3 222 -8 328 -29z"/>
</g>
</svg>
